<svg xmlns="http://www.w3.org/2000/svg" version="1.1" xmlns:xlink="http://www.w3.org/1999/xlink" xmlns:svgjs="http://svgjs.dev/svgjs" width="191.796" height="192.494"><svg xmlns="http://www.w3.org/2000/svg" viewBox="0 0 191.796 192.494"><path d="M.456 84.484 84.939 0C40.789 5.044 5.723 40.151.456 84.484Zm190.892 23.195-84.483 84.483c44.15-5.043 79.208-40.151 84.483-84.483zm-74.61-106.02-62.41 62.409-19.396 19.528a5.808 5.808 0 0 1-8.221 0c-2.273-2.273-5.592-1.909-7.864.356L0 102.801a97.036 97.036 0 0 0 5.342 25.85L128.816 5.175a95.47 95.47 0 0 0-12.079-3.518Zm34.037 15.015-46.872 46.871-6.669 6.795a5.808 5.808 0 0 1-8.221 0c-2.273-2.273-5.591-1.909-7.865.356l-70.364 70.373a96.825 96.825 0 0 0 12.65 18.54l136.06-136.05a98.268 98.268 0 0 0-8.711-6.885zm24.388 24.664-50.728 50.728-6.67 6.794a5.808 5.808 0 0 1-8.22 0c-2.273-2.273-5.592-1.908-7.865.357l-69.377 69.377a96.272 96.272 0 0 0 18.359 12.834l130.35-130.351a97.753 97.753 0 0 0-5.849-9.748zm11.623 37.438-4.488 4.613a5.808 5.808 0 0 1-8.22 0c-2.274-2.273-5.592-1.909-7.865.356L62.98 186.977c8.106 2.97 16.725 4.845 25.676 5.517l103.14-103.14a96.383 96.383 0 0 0-1.908-13.689l-3.11 3.111z" style="fill:#002864"></path><style>@media (prefers-color-scheme:dark){path{fill:#fff!important}}</style></svg><style>@media (prefers-color-scheme: light) { :root { filter: none; } }
@media (prefers-color-scheme: dark) { :root { filter: invert(100%); } }
</style></svg>